<?xml version="1.0" encoding="UTF-8"?>
<svg id="Ebene_2" data-name="Ebene 2" xmlns="http://www.w3.org/2000/svg" viewBox="0 0 213.16 297.36">
  <defs>
    <style>
      .cls-1 {
        fill: #db5413;
        stroke-width: 0px;
      }
    </style>
  </defs>
  <g id="Ebene_1-2" data-name="Ebene 1">
    <g>
      <path class="cls-1" d="M106.58,0C47.72,0,0,47.72,0,106.58s47.72,106.58,106.58,106.58,106.58-47.72,106.58-106.58S165.44,0,106.58,0ZM106.58,152.14c-25.16,0-45.56-20.4-45.56-45.56s20.4-45.56,45.56-45.56,45.56,20.4,45.56,45.56-20.4,45.56-45.56,45.56Z"/>
      <path class="cls-1" d="M106.58,229.49l-7.43-11.42c-23.65-1.71-45.06-11.49-61.5-26.6l68.93,105.89,68.93-105.89c-16.43,15.12-37.84,24.9-61.5,26.6l-7.43,11.42Z"/>
    </g>
  </g>
</svg>