<?xml version="1.0" standalone="no"?>
<!DOCTYPE svg PUBLIC "-//W3C//DTD SVG 20010904//EN"
 "http://www.w3.org/TR/2001/REC-SVG-20010904/DTD/svg10.dtd">
<svg version="1.0" xmlns="http://www.w3.org/2000/svg"
 width="1188.000000pt" height="1188.000000pt" viewBox="0 0 1188.000000 1188.000000"
 preserveAspectRatio="xMidYMid meet">
<metadata>
Created by potrace 1.14, written by Peter Selinger 2001-2017
</metadata>
<g transform="translate(0.000000,1188.000000) scale(0.100000,-0.100000)"
fill="#000000" stroke="none">
<path d="M5698 11875 c-2 -1 -41 -6 -88 -9 -109 -8 -161 -13 -235 -23 -33 -4
-64 -8 -70 -8 -5 -1 -23 -4 -40 -8 -16 -4 -45 -9 -62 -12 -37 -6 -93 -16 -108
-19 -5 -1 -26 -6 -45 -10 -108 -24 -248 -58 -270 -65 -14 -5 -65 -21 -115 -36
-49 -15 -99 -31 -110 -35 -11 -5 -51 -20 -90 -34 -38 -14 -83 -31 -100 -37
-16 -7 -32 -13 -35 -14 -3 -1 -18 -7 -33 -13 -16 -7 -32 -12 -37 -12 -5 0 -10
-4 -12 -10 -1 -5 -12 -11 -23 -13 -21 -3 -244 -110 -284 -136 -13 -8 -31 -16
-40 -18 -9 -1 -17 -7 -19 -12 -2 -6 -8 -11 -13 -11 -5 0 -59 -30 -120 -67 -61
-38 -118 -72 -127 -78 -40 -24 -117 -80 -120 -87 -2 -4 -8 -8 -13 -8 -8 0
-204 -143 -219 -159 -5 -6 -104 -89 -150 -126 -13 -11 -96 -92 -185 -180 -162
-162 -227 -233 -315 -345 -28 -36 -84 -106 -106 -132 -7 -10 -12 -18 -9 -18 3
0 -3 -9 -13 -19 -29 -33 -42 -50 -42 -56 0 -3 -17 -29 -38 -58 -49 -67 -168
-260 -165 -269 1 -3 -4 -12 -12 -18 -8 -7 -15 -18 -15 -25 0 -8 -3 -15 -8 -17
-11 -5 -152 -285 -152 -303 0 -8 -5 -15 -12 -15 -6 0 -9 -3 -5 -6 3 -3 -3 -23
-14 -42 -10 -20 -19 -40 -19 -44 0 -4 -11 -32 -25 -62 -14 -30 -25 -61 -25
-68 0 -8 -5 -19 -12 -26 -7 -7 -8 -12 -4 -12 5 0 4 -6 -1 -12 -10 -12 -76
-201 -78 -223 -1 -5 -4 -17 -7 -25 -9 -21 -49 -167 -54 -199 -3 -14 -9 -39
-14 -56 -11 -36 -37 -167 -45 -225 -2 -14 -4 -25 -5 -25 -2 0 -10 -52 -14 -90
-3 -28 -12 -93 -22 -160 -11 -78 -18 -241 -18 -465 0 -257 8 -416 30 -550 2
-14 6 -38 8 -55 5 -41 18 -126 23 -150 2 -11 6 -29 8 -40 4 -21 11 -59 20 -97
3 -13 9 -43 14 -68 22 -99 104 -387 130 -453 19 -47 24 -62 23 -69 -1 -5 2 -8
8 -8 5 0 7 -7 4 -15 -4 -8 -2 -15 3 -15 6 0 16 -19 23 -42 28 -95 175 -403
256 -539 19 -31 34 -60 34 -63 0 -4 5 -12 10 -19 22 -26 110 -168 110 -177 0
-6 4 -10 8 -10 5 0 14 -10 20 -22 7 -13 28 -43 47 -68 19 -25 38 -52 42 -60 3
-8 9 -17 13 -20 3 -3 21 -25 40 -50 19 -25 37 -47 40 -50 3 -3 17 -21 32 -40
15 -19 39 -48 53 -65 15 -16 52 -59 83 -95 115 -131 323 -330 467 -446 33 -26
62 -51 65 -54 11 -12 129 -100 134 -100 3 0 17 -11 32 -25 15 -14 33 -25 40
-25 7 0 14 -4 16 -8 4 -12 95 -72 107 -72 6 0 11 -4 11 -8 0 -5 12 -15 28 -23
15 -8 29 -16 32 -20 22 -24 500 -275 500 -262 0 3 6 1 13 -5 6 -6 37 -20 67
-32 30 -12 69 -27 85 -35 162 -71 566 -190 745 -220 14 -3 63 -11 110 -19 175
-30 240 -37 440 -52 218 -16 612 -6 792 21 24 4 57 8 74 10 17 1 51 6 75 10
24 5 55 9 69 11 14 1 25 3 25 4 0 1 14 4 30 6 17 2 59 11 95 19 109 26 114 27
133 27 9 -1 17 2 17 6 0 4 10 8 23 9 25 3 45 7 67 16 8 3 49 15 90 26 100 27
219 69 365 126 165 64 574 266 583 287 2 5 8 8 13 8 6 0 22 8 37 19 31 21 257
171 281 186 9 6 18 12 21 15 3 3 39 31 80 63 95 71 84 63 155 122 33 28 74 65
92 82 18 18 35 33 38 33 2 0 64 60 137 134 122 122 161 165 259 281 19 22 36
42 40 45 3 3 18 23 35 45 36 50 46 62 62 80 6 7 12 18 12 24 0 6 4 11 8 11 5
0 20 17 33 38 14 20 57 84 95 142 90 134 172 274 239 408 68 136 135 280 135
290 0 4 6 18 13 32 7 14 23 54 36 90 12 36 26 74 31 85 17 36 58 165 53 165
-3 0 0 7 7 15 7 8 9 15 6 15 -4 0 -2 8 3 18 10 18 73 254 76 282 0 9 4 21 9
28 4 6 5 12 2 12 -2 0 3 28 11 63 8 34 16 78 18 97 2 19 4 35 5 35 1 0 3 9 5
20 1 11 6 38 9 60 6 36 10 67 21 163 27 223 27 746 -1 937 -2 17 -6 48 -8 70
-6 50 -20 140 -30 191 -2 12 -7 37 -10 55 -6 38 -13 71 -21 109 -4 14 -8 34
-10 45 -3 11 -7 31 -11 45 -3 14 -7 34 -10 45 -9 46 -42 164 -48 174 -4 6 -9
21 -11 33 -6 29 -63 203 -81 243 -7 17 -20 50 -29 75 -34 91 -39 102 -135 305
-35 72 -71 142 -81 157 -11 14 -19 33 -19 42 0 9 -4 16 -10 16 -5 0 -10 5 -10
10 0 6 -22 47 -50 91 -27 44 -50 85 -50 90 0 5 -4 9 -10 9 -5 0 -10 7 -10 15
0 8 -4 15 -10 15 -5 0 -10 4 -10 10 0 13 -141 215 -182 261 -10 10 -18 22 -18
27 0 4 -12 21 -28 37 -15 17 -47 55 -72 85 -25 30 -58 70 -75 89 -58 66 -351
356 -393 391 -24 19 -65 54 -90 77 -26 24 -50 43 -54 43 -4 0 -13 6 -20 13
-13 13 -154 119 -198 150 -261 179 -547 335 -837 456 -40 17 -73 27 -73 23 0
-4 -4 -2 -8 3 -4 6 -29 18 -57 27 -59 19 -142 48 -170 59 -24 9 -269 77 -305
84 -14 2 -55 11 -91 19 -36 8 -79 17 -95 20 -104 20 -145 26 -187 30 -26 3
-51 7 -55 10 -4 2 -45 7 -92 11 -47 4 -103 9 -125 11 -47 6 -582 14 -587 9z
m372 -2439 c97 -7 143 -13 205 -25 80 -16 88 -18 135 -32 25 -7 52 -14 61 -15
49 -10 342 -135 359 -154 3 -3 22 -14 43 -25 21 -11 47 -28 57 -37 11 -10 22
-18 25 -18 17 0 149 -106 244 -195 173 -163 347 -419 429 -631 10 -27 23 -58
27 -69 5 -11 9 -22 9 -25 1 -7 27 -92 34 -110 3 -8 7 -26 9 -40 2 -14 6 -32
10 -40 3 -8 7 -22 8 -30 1 -8 5 -33 9 -55 9 -51 15 -101 21 -170 2 -31 7 -60
10 -66 4 -5 1 -9 -5 -9 -6 0 -9 -4 -6 -8 7 -12 8 -104 2 -193 -5 -72 -7 -92
-22 -171 -3 -18 -7 -42 -9 -53 -13 -69 -18 -92 -26 -107 -5 -9 -8 -21 -7 -25
3 -12 -40 -139 -69 -203 -14 -30 -26 -59 -27 -65 -3 -13 -49 -107 -59 -120 -4
-5 -24 -38 -45 -73 -64 -108 -163 -232 -268 -336 -137 -136 -232 -210 -364
-283 -36 -20 -66 -40 -68 -45 -2 -4 -10 -8 -17 -8 -7 0 -44 -15 -81 -34 -58
-28 -95 -44 -124 -51 -3 -1 -12 -4 -20 -8 -25 -10 -108 -36 -132 -42 -146 -33
-203 -43 -209 -39 -4 2 -10 1 -13 -4 -5 -9 -89 -14 -251 -15 -170 -1 -278 10
-420 43 -27 6 -57 13 -65 15 -21 4 -141 45 -165 55 -11 5 -47 20 -80 34 -95
38 -267 136 -350 198 -240 180 -434 412 -560 673 -56 115 -115 273 -115 306 0
10 -5 19 -12 19 -6 0 -9 2 -6 5 3 4 1 25 -4 48 -15 67 -19 89 -34 187 -2 14
-6 66 -9 115 -3 50 -6 107 -8 128 -1 20 0 37 3 37 3 0 5 26 6 58 0 74 15 204
29 252 2 8 7 29 9 46 9 51 72 245 101 309 52 115 59 130 69 137 6 4 7 8 3 8
-4 0 8 25 28 55 19 31 35 59 35 64 0 5 3 11 8 13 4 2 23 26 42 54 58 84 81
112 170 206 200 213 459 379 734 474 38 13 73 21 77 18 4 -2 10 0 13 5 3 5 23
12 43 17 21 4 40 8 43 9 79 21 165 33 278 39 40 2 75 6 77 8 4 4 78 1 185 -6z"/>
<path d="M8668 4212 c-3 -10 -79 -77 -147 -132 -24 -19 -48 -39 -55 -45 -40
-36 -165 -125 -175 -125 -6 0 -11 -4 -11 -8 0 -18 -304 -206 -460 -284 -36
-18 -66 -36 -68 -40 -2 -5 -9 -8 -15 -8 -7 0 -46 -16 -87 -36 -88 -42 -96 -45
-175 -77 -33 -13 -69 -28 -80 -32 -11 -5 -22 -9 -25 -9 -8 -2 -103 -37 -125
-46 -21 -9 -88 -30 -108 -34 -7 -2 -19 -6 -27 -9 -14 -6 -124 -35 -160 -42 -8
-2 -16 -4 -17 -5 -4 -3 -5 -3 -78 -20 -33 -7 -69 -14 -80 -16 -11 -1 -20 -3
-20 -4 0 -1 -11 -4 -25 -6 -226 -41 -233 -41 -415 -59 -55 -5 -75 -12 -92 -30
-13 -13 -23 -26 -23 -29 0 -5 -113 -184 -127 -201 -5 -5 -20 -28 -33 -50 -13
-22 -28 -41 -32 -43 -4 -2 -8 -9 -8 -16 0 -7 -9 -21 -20 -31 -11 -10 -20 -24
-20 -30 0 -7 -7 -18 -15 -25 -9 -8 -15 -9 -15 -2 0 10 -226 362 -249 389 -6 7
-11 16 -11 21 0 5 -8 16 -17 24 -17 15 -50 21 -193 34 -30 2 -95 11 -145 20
-49 8 -103 17 -120 20 -16 3 -73 14 -125 26 -52 11 -102 22 -110 23 -8 2 -15
4 -15 5 0 1 -7 3 -15 5 -24 5 -102 25 -140 37 -37 12 -56 17 -68 19 -6 1 -33
11 -97 35 -11 4 -24 8 -30 9 -19 5 -180 66 -197 76 -10 5 -24 9 -31 9 -7 0
-18 5 -25 12 -6 6 -18 13 -26 14 -43 6 -495 245 -504 266 -2 4 -8 8 -14 8 -5
0 -28 13 -51 28 -23 16 -50 31 -59 35 -10 4 -18 11 -18 17 0 5 -5 10 -10 10
-22 0 -314 224 -413 317 -21 19 -40 33 -42 31 -3 -2 25 -48 60 -101 36 -53 65
-99 65 -102 0 -3 9 -15 20 -27 11 -12 20 -28 20 -35 0 -7 3 -13 8 -13 4 0 18
-20 32 -45 14 -25 28 -45 32 -45 5 0 8 -6 8 -13 0 -7 9 -23 20 -35 11 -12 20
-24 20 -27 0 -3 18 -33 40 -65 22 -32 40 -62 40 -65 0 -3 8 -15 18 -26 11 -10
25 -32 33 -47 8 -15 18 -31 22 -37 9 -10 123 -183 142 -215 23 -38 100 -155
105 -160 7 -7 26 -38 49 -81 11 -19 27 -41 35 -48 9 -8 16 -17 16 -21 0 -4 31
-54 68 -111 37 -57 96 -147 130 -199 34 -52 66 -100 72 -107 5 -7 10 -16 10
-21 0 -5 9 -17 20 -27 11 -10 20 -22 20 -26 0 -4 17 -34 38 -66 21 -32 66
-101 100 -153 34 -52 66 -102 72 -110 6 -8 34 -51 62 -95 29 -44 106 -163 173
-265 66 -102 145 -223 175 -270 30 -46 78 -120 107 -165 29 -44 57 -85 62 -92
6 -7 16 -24 23 -38 6 -14 15 -25 20 -25 4 0 8 -7 8 -15 0 -8 5 -15 10 -15 6 0
10 -4 10 -10 0 -8 118 -193 190 -300 63 -93 190 -293 190 -300 0 -4 4 -10 8
-12 8 -3 91 -127 111 -165 6 -12 17 -27 23 -35 7 -7 19 -25 27 -40 8 -15 22
-37 33 -47 10 -11 18 -23 18 -26 0 -8 134 -210 142 -213 5 -2 8 -9 8 -17 0 -7
7 -18 15 -25 10 -8 15 -9 15 -2 0 13 61 105 73 110 4 2 7 9 7 16 0 6 7 21 15
31 9 11 57 83 107 160 50 77 107 165 127 195 20 30 39 63 43 72 4 10 12 18 18
18 5 0 10 4 10 9 0 8 123 205 147 236 24 31 83 126 83 135 0 5 5 10 10 10 6 0
10 7 10 15 0 8 4 15 8 15 5 0 14 11 20 25 7 14 17 31 23 38 6 7 60 89 120 182
61 94 142 220 181 280 40 61 101 155 137 210 36 55 69 102 73 103 4 2 8 8 8
13 0 5 56 94 124 198 69 104 130 200 137 213 6 13 15 25 18 28 4 3 21 28 39
55 17 28 35 55 40 60 5 6 11 15 13 21 2 5 33 55 69 109 36 55 102 156 147 225
45 69 87 131 93 137 6 7 10 15 10 18 0 3 7 15 15 28 9 12 60 90 114 172 53 83
120 186 149 230 28 44 59 91 69 104 10 13 16 26 15 29 -2 3 1 8 6 11 12 8 182
270 182 281 0 4 3 10 8 12 4 2 23 28 43 58 20 30 75 115 123 189 87 132 103
161 93 161 -3 0 -7 -4 -9 -8z"/>
</g>
</svg>
